<?xml version="1.0" encoding="iso-8859-1"?>
<!-- Generator: Adobe Illustrator 19.0.0, SVG Export Plug-In . SVG Version: 6.00 Build 0)  -->
<svg version="1.1" id="Layer_1" xmlns="http://www.w3.org/2000/svg" xmlns:xlink="http://www.w3.org/1999/xlink" x="0px" y="0px"
	 viewBox="0 0 505 505" style="enable-background:new 0 0 505 505;" xml:space="preserve">
<circle style="fill:#FF7058;" cx="252.5" cy="252.5" r="252.5"/>
<g>
	<path style="fill:#FFFFFF;" d="M161.4,184.4c0,1.2-0.1,2.4-0.2,3.6c-9.3,3.6-20.3,5.7-32,5.7s-22.7-2.1-32-5.7
		c-0.1-1.2-0.2-2.4-0.2-3.6c0-18.7,14.4-33.8,32.2-33.8C147,150.6,161.4,165.7,161.4,184.4z"/>
	<path style="fill:#FFFFFF;" d="M142.4,127.1c0,9.1-5.9,20.2-13.2,20.2S116,136.2,116,127.1s5.9-12.7,13.2-12.7
		C136.5,114.4,142.4,118,142.4,127.1z"/>
	<path style="fill:#FFFFFF;" d="M161.4,282.9c0,1.2-0.1,2.4-0.2,3.6c-9.3,3.6-20.3,5.7-32,5.7s-22.7-2.1-32-5.7
		c-0.1-1.2-0.2-2.4-0.2-3.6c0-18.7,14.4-33.8,32.2-33.8C147,249.1,161.4,264.2,161.4,282.9z"/>
	<path style="fill:#FFFFFF;" d="M142.4,225.6c0,9.1-5.9,20.2-13.2,20.2S116,234.7,116,225.6c0-9.1,5.9-12.7,13.2-12.7
		C136.5,212.9,142.4,216.5,142.4,225.6z"/>
	<path style="fill:#FFFFFF;" d="M161.4,381.4c0,1.2-0.1,2.4-0.2,3.6c-9.3,3.6-20.3,5.7-32,5.7s-22.7-2.1-32-5.7
		c-0.1-1.2-0.2-2.4-0.2-3.6c0-18.7,14.4-33.8,32.2-33.8S161.4,362.7,161.4,381.4z"/>
	<path style="fill:#FFFFFF;" d="M142.4,324.1c0,9.1-5.9,20.2-13.2,20.2S116,333.2,116,324.1s5.9-12.7,13.2-12.7
		C136.5,311.4,142.4,315,142.4,324.1z"/>
	<rect x="186" y="121.9" style="fill:#FFFFFF;" width="214.1" height="64.2"/>
</g>
<rect x="196.7" y="132.6" style="fill:#4CDBC4;" width="153.4" height="42.7"/>
<rect x="186" y="220.4" style="fill:#FFFFFF;" width="214.1" height="64.2"/>
<rect x="196.7" y="231.1" style="fill:#4CDBC4;" width="94.4" height="42.7"/>
<rect x="186" y="318.9" style="fill:#FFFFFF;" width="214.1" height="64.2"/>
<rect x="196.7" y="329.6" style="fill:#4CDBC4;" width="121.6" height="42.7"/>
<g>
</g>
<g>
</g>
<g>
</g>
<g>
</g>
<g>
</g>
<g>
</g>
<g>
</g>
<g>
</g>
<g>
</g>
<g>
</g>
<g>
</g>
<g>
</g>
<g>
</g>
<g>
</g>
<g>
</g>
</svg>
